<svg version="1.0" xmlns="http://www.w3.org/2000/svg"
 width="1080.000000pt" height="1080.000000pt" viewBox="0 0 1080.000000 1080.000000"
 preserveAspectRatio="xMidYMid meet">

<g transform="translate(0.000000,1080.000000) scale(0.100000,-0.100000)"
fill="#000000" stroke="none">
<path d="M8050 10352 c0 -4 7 -18 16 -30 8 -12 12 -28 8 -35 -4 -6 -54 -88
-112 -180 -101 -161 -107 -168 -136 -167 -17 1 -35 1 -41 1 -5 -1 25 -24 68
-52 87 -55 113 -60 73 -12 l-27 32 93 145 c51 80 94 144 96 142 1 -2 14 -102
27 -222 31 -271 33 -284 48 -284 7 0 66 87 133 193 115 182 123 192 152 193
18 0 32 4 32 8 1 11 -140 100 -147 93 -3 -3 5 -20 17 -37 12 -16 20 -34 18
-39 -6 -17 -163 -260 -165 -257 -2 1 -14 106 -29 232 -14 126 -26 229 -27 229
-1 1 -21 13 -44 28 -45 29 -53 32 -53 19z"/>
<path d="M7648 9292 c-251 -286 -1093 -1245 -1603 -1825 -148 -169 -113 -154
-280 -121 -56 11 -155 17 -330 20 l-250 4 -110 212 c-61 117 -238 461 -394
763 -157 303 -291 559 -299 570 -12 18 -13 7 -8 -95 8 -135 92 -1446 101
-1570 l7 -85 -79 -39 c-144 -71 -343 -209 -468 -328 l-51 -47 -124 40 c-69 22
-525 168 -1015 324 -489 156 -1068 340 -1285 409 -217 69 -398 125 -403 123
-5 -1 164 -153 375 -338 211 -185 536 -470 724 -635 187 -164 517 -454 733
-643 325 -285 391 -348 387 -365 -29 -115 -39 -225 -45 -455 l-6 -255 -505
-261 c-278 -143 -630 -325 -783 -404 -153 -79 -276 -145 -274 -147 3 -3 456
25 1382 86 165 11 320 20 345 20 l45 0 35 -72 c51 -103 197 -320 282 -417 40
-46 77 -89 82 -96 7 -9 -26 -126 -101 -362 -61 -191 -173 -541 -248 -778 -75
-236 -156 -491 -180 -565 -186 -577 -356 -1122 -352 -1126 5 -5 81 80 788 887
282 321 1102 1257 1159 1322 4 5 65 -2 136 -14 110 -20 164 -23 365 -24 l236
0 65 -125 c36 -69 177 -341 313 -605 136 -264 260 -502 275 -530 15 -27 58
-110 94 -184 37 -73 69 -131 71 -129 2 2 -7 168 -20 368 -13 201 -38 581 -54
845 -17 264 -33 497 -35 517 l-4 38 96 52 c131 71 281 172 376 255 43 37 91
78 105 89 l26 22 280 -90 c154 -49 377 -120 495 -158 1176 -376 2043 -650
2047 -647 4 4 -232 217 -367 332 -26 22 -321 281 -656 575 -335 295 -739 650
-899 790 -159 140 -291 260 -293 267 -2 7 4 50 12 95 27 149 38 290 34 461
l-3 168 110 58 c61 31 209 108 330 171 121 62 405 209 630 325 226 117 430
222 453 234 24 12 42 24 40 27 -4 4 -778 -44 -1462 -91 -121 -8 -238 -15 -261
-15 l-40 0 -50 93 c-70 131 -169 276 -273 398 l-91 106 225 704 c123 387 326
1023 450 1412 125 390 224 710 222 713 -3 2 -106 -112 -230 -254z m-29 -204
c-7 -13 -80 -142 -162 -288 -82 -146 -227 -402 -322 -570 -441 -782 -609
-1077 -626 -1106 l-19 -32 -65 35 c-82 43 -252 114 -332 138 -35 10 -63 21
-63 25 0 4 150 178 333 386 182 209 540 617 795 907 254 290 465 527 468 527
2 0 -1 -10 -7 -22z m-2969 -1157 c93 -337 170 -618 170 -624 0 -13 -246 -101
-259 -93 -4 3 -11 58 -14 123 -4 65 -23 357 -42 648 -37 568 -37 571 -30 564
2 -3 81 -281 175 -618z m-2963 -639 c114 -65 375 -212 578 -327 542 -306 1208
-683 1225 -693 12 -7 5 -28 -42 -123 -56 -115 -128 -295 -128 -323 0 -42 12
-52 -661 539 -112 98 -386 339 -609 534 -468 411 -581 511 -576 511 2 0 98
-53 213 -118z m4028 -41 c850 -127 1533 -753 1730 -1586 167 -706 -44 -1442
-562 -1960 -625 -625 -1585 -784 -2388 -395 -1037 502 -1470 1776 -953 2805
312 620 905 1047 1584 1139 154 21 434 20 589 -3z m3055 -1130 c-8 -5 -73 -25
-145 -44 -149 -41 -1062 -295 -1086 -302 -11 -4 -21 12 -38 67 -13 40 -34 100
-47 132 -13 33 -22 61 -20 63 3 3 1240 88 1326 91 19 1 21 -1 10 -7z m-5457
-1557 c5 -16 25 -73 44 -127 19 -54 33 -101 31 -103 -3 -2 -281 -22 -619 -44
-338 -21 -641 -42 -674 -44 -90 -8 -55 5 195 74 332 92 550 152 785 218 116
33 214 59 219 58 6 -1 14 -15 19 -32z m4519 -264 c166 -146 418 -367 558 -490
140 -123 404 -354 585 -514 182 -159 341 -300 355 -314 l25 -25 -45 25 c-185
104 -1986 1122 -1988 1123 -1 1 22 51 52 111 50 102 115 263 131 327 4 15 11
27 15 25 5 -2 145 -122 312 -268z m-3370 -1085 c62 -31 163 -73 223 -94 61
-21 109 -42 108 -45 -1 -4 -139 -163 -306 -354 -167 -191 -504 -574 -747 -852
-515 -587 -545 -620 -538 -600 5 13 258 464 808 1435 59 105 149 264 200 355
114 202 118 210 129 210 5 0 60 -25 123 -55z m1848 -695 c22 -344 42 -647 45
-675 4 -27 4 -47 0 -44 -5 6 -355 1255 -355 1270 0 3 21 12 48 20 26 7 85 27
132 45 53 19 86 27 87 20 2 -6 21 -292 43 -636z"/>
<path d="M5161 7044 c-742 -101 -1358 -639 -1556 -1360 -86 -312 -88 -659 -8
-969 171 -658 689 -1175 1348 -1345 951 -245 1938 294 2249 1230 165 498 109
1061 -152 1514 -148 255 -371 490 -618 650 -366 235 -831 338 -1263 280z m574
-38 c269 -55 486 -143 696 -282 120 -79 160 -112 278 -227 502 -492 678 -1225
456 -1895 -66 -200 -187 -418 -322 -584 -82 -101 -257 -264 -364 -340 -545
-387 -1270 -447 -1874 -154 -850 413 -1255 1415 -928 2296 242 650 810 1104
1503 1200 102 14 461 5 555 -14z"/>
<path d="M5389 6871 c-26 -47 -93 -96 -151 -112 -43 -11 -44 -14 -23 -57 19
-37 30 -121 21 -156 -8 -34 -47 -35 -73 -3 -53 68 -102 52 -128 -40 -9 -32
-20 -69 -23 -83 -9 -31 -93 -95 -152 -115 -110 -38 -284 -23 -363 32 -50 35
-89 34 -127 -2 -32 -31 -39 -70 -19 -107 28 -53 20 -95 -58 -292 -41 -105 -91
-231 -110 -281 -19 -49 -82 -209 -140 -355 -58 -146 -114 -289 -125 -318 -11
-29 -29 -61 -40 -72 -25 -23 -20 -54 9 -58 15 -2 24 -13 29 -35 18 -84 77
-168 151 -215 84 -53 149 -67 323 -67 220 0 314 28 397 118 48 52 68 87 84
150 8 35 16 47 33 49 25 4 35 45 12 54 -8 3 -47 87 -87 187 -439 1111 -419
1059 -408 1080 7 12 4 22 -11 37 -24 24 -23 58 1 73 25 16 67 0 83 -32 13 -25
25 -30 83 -42 214 -40 400 8 506 131 l34 40 76 0 77 0 0 -31 c0 -17 -7 -46
-16 -65 -16 -33 -16 -36 2 -49 18 -13 18 -14 -9 -35 -29 -23 -50 -58 -61 -102
-6 -25 -2 -29 41 -51 27 -13 58 -38 71 -57 l22 -33 0 -588 0 -588 -36 -29 -36
-30 30 -33 30 -34 -34 -37 c-45 -50 -44 -94 5 -145 27 -28 26 -29 -5 -57 -17
-14 -29 -37 -33 -61 -5 -33 -11 -40 -38 -47 -38 -10 -83 -61 -83 -94 0 -13
-10 -30 -22 -38 -13 -8 -31 -30 -41 -49 -22 -40 -64 -67 -104 -67 -24 0 -31
-6 -41 -33 -7 -18 -26 -46 -43 -63 -30 -29 -32 -29 -167 -34 l-137 -5 -3 -42
-3 -43 875 0 876 0 0 45 0 45 -159 0 -158 0 -41 44 c-22 23 -43 53 -47 65 -4
14 -15 21 -33 21 -39 0 -90 35 -109 75 -9 19 -24 37 -34 40 -10 3 -20 20 -23
40 -8 39 -56 92 -88 97 -18 2 -24 12 -31 46 -6 29 -17 49 -37 64 l-29 21 29
34 c42 47 42 103 0 145 l-31 30 26 35 27 34 -36 39 -36 40 0 564 c0 375 4 574
11 593 15 40 57 81 96 94 25 8 33 16 33 35 0 34 -26 84 -58 111 -25 21 -25 23
-8 42 16 17 16 22 3 43 -9 12 -19 40 -22 61 l-7 37 83 0 c83 -1 84 -1 108 -33
37 -50 104 -97 179 -124 56 -21 85 -25 177 -26 124 0 224 18 233 42 16 46 71
68 100 39 14 -14 16 -58 3 -58 -5 0 -17 -7 -25 -16 -12 -12 -13 -20 -5 -35 5
-11 7 -30 3 -42 -8 -27 -95 -248 -381 -972 -52 -132 -101 -244 -109 -248 -22
-12 -17 -46 9 -56 16 -6 28 -25 40 -65 35 -109 121 -191 240 -228 62 -20 94
-23 232 -23 137 0 170 3 231 22 122 39 206 120 240 233 13 45 22 60 38 62 28
4 33 38 8 57 -11 9 -59 118 -115 261 -53 135 -161 409 -240 610 -118 299 -143
372 -139 402 2 21 10 43 18 49 24 20 17 68 -15 100 -41 41 -75 42 -131 4 -40
-27 -157 -55 -227 -55 -140 0 -284 84 -298 173 -8 52 -41 123 -61 131 -22 9
-61 -10 -80 -39 -12 -19 -24 -25 -43 -23 -25 3 -26 7 -29 65 -2 47 2 75 18
109 24 55 24 54 8 54 -24 0 -133 57 -154 81 -12 13 -28 37 -36 53 l-15 29 -24
-42z m-38 -94 c-6 -8 -29 -22 -50 -32 l-40 -17 4 -72 c4 -65 4 -67 -5 -23 -5
27 -13 61 -18 76 -10 28 -9 29 51 53 34 14 64 26 66 27 2 0 -2 -5 -8 -12z
m107 -32 c20 -14 42 -25 49 -25 16 0 16 3 2 -60 l-11 -50 -25 20 c-33 26 -83
25 -117 -1 -15 -12 -29 -20 -30 -18 -2 2 -7 27 -11 55 -6 50 -6 52 22 62 15 5
37 17 48 26 27 21 30 20 73 -9z m-377 -222 c-5 -10 -14 -43 -20 -74 -9 -42
-21 -65 -51 -96 -76 -79 -214 -121 -337 -103 -85 12 -165 31 -159 37 3 3 29
-1 58 -8 29 -7 98 -13 153 -13 124 1 196 25 266 91 38 35 50 55 58 95 11 49
27 88 37 88 2 0 1 -8 -5 -17z m699 -68 c14 -66 79 -134 160 -165 68 -27 184
-36 270 -21 125 21 127 21 83 7 -172 -58 -331 -40 -450 52 -43 32 -69 77 -78
132 -4 25 -12 54 -17 65 -9 19 -9 19 6 1 8 -10 20 -42 26 -71z m-467 -195 c-3
-12 -8 -19 -11 -16 -5 6 5 36 12 36 2 0 2 -9 -1 -20z m37 -39 c0 -3 -14 -14
-30 -23 -28 -16 -70 -72 -69 -93 0 -5 21 -23 46 -40 87 -57 83 -20 83 -690 0
-576 -1 -591 -20 -623 l-21 -34 27 -35 c26 -35 27 -36 8 -49 -42 -30 -64 -57
-64 -79 0 -30 34 -71 78 -94 l36 -18 -46 -21 c-53 -23 -70 -48 -78 -112 -5
-41 -7 -45 -40 -51 -40 -8 -70 -41 -70 -75 0 -16 -10 -28 -30 -39 -16 -9 -30
-23 -30 -31 0 -29 -64 -82 -114 -95 -34 -8 -50 -18 -56 -34 -5 -13 -13 -26
-19 -29 -5 -4 -3 11 6 33 13 34 20 39 54 44 51 7 97 41 107 80 5 20 18 37 35
45 15 7 27 20 27 29 0 29 35 73 66 85 26 9 33 19 43 58 8 30 25 59 46 80 l34
33 -34 39 c-46 50 -46 85 -1 136 l35 38 -24 30 c-25 30 -32 54 -15 54 5 0 16
13 25 30 13 25 15 109 15 617 0 569 -1 589 -20 621 -11 18 -40 42 -65 54 -25
12 -45 27 -45 33 0 20 53 93 77 106 13 7 22 18 19 25 -3 8 1 11 10 7 7 -3 14
-8 14 -12z m1067 -43 c-3 -8 -6 -5 -6 6 -1 11 2 17 5 13 3 -3 4 -12 1 -19z
m-1939 -253 c39 -99 110 -279 157 -400 215 -545 235 -598 235 -607 0 -4 -214
-8 -475 -8 -261 0 -475 4 -475 8 0 5 36 100 81 213 44 112 102 260 129 329 27
69 93 238 148 375 54 138 102 259 106 269 4 11 10 15 15 10 4 -5 40 -90 79
-189z m2077 -102 c65 -164 171 -433 236 -598 66 -165 119 -303 119 -307 0 -5
-214 -8 -475 -8 -335 0 -475 3 -475 11 0 11 39 110 322 829 141 356 146 370
153 370 1 0 56 -134 120 -297z m-2558 -940 c-36 -3 -47 -8 -43 -18 3 -8 10
-33 16 -56 27 -99 118 -181 241 -219 40 -13 51 -19 29 -16 -64 8 -148 47 -199
92 -49 44 -91 113 -91 149 0 10 -7 26 -16 36 -25 28 -8 39 54 37 l57 -2 -48
-3z m2036 0 c-49 -4 -52 -5 -43 -26 5 -12 14 -40 20 -63 20 -82 120 -167 238
-204 33 -11 47 -19 34 -19 -41 -2 -169 59 -211 99 -43 42 -74 96 -86 147 -3
18 -11 35 -16 38 -5 4 -9 13 -9 21 0 11 14 14 63 12 l62 -2 -52 -3z"/>
</g>
</svg>
